HIERARCHY
ROOT Hips
{
	OFFSET -3.958830 18.904000 13.208200
	CHANNELS 6 Xposition Yposition Zposition Zrotation Yrotation Xrotation 
	JOINT LHipJoint
	{
		OFFSET 0.000000 0.000000 0.000000
		CHANNELS 3 Zrotation Yrotation Xrotation
		JOINT LeftUpLeg
		{
			OFFSET 1.800000 -1.400000 0.085000
			CHANNELS 3 Zrotation Yrotation Xrotation
			JOINT LeftLeg
			{
				OFFSET 2.215000 -6.000000 0.000000
				CHANNELS 3 Zrotation Yrotation Xrotation
				JOINT LeftFoot
				{
					OFFSET 2.500000 -6.900000 0.000000
					CHANNELS 3 Zrotation Yrotation Xrotation
					JOINT LeftToeBase
					{
						OFFSET 0.200000 -0.500000 1.950000
						CHANNELS 3 Zrotation Yrotation Xrotation
						End Site
						{
							OFFSET 0.000000 0.000000 0.000000
						}
					}
				}
			}
		}
	}
	JOINT RHipJoint
	{
		OFFSET 0.000000 0.000000 0.000000
		CHANNELS 3 Zrotation Yrotation Xrotation
		JOINT RightUpLeg
		{
			OFFSET -1.800000 -1.400000 0.085000
			CHANNELS 3 Zrotation Yrotation Xrotation
			JOINT RightLeg
			{
				OFFSET -2.215000 -6.000000 0.000000
				CHANNELS 3 Zrotation Yrotation Xrotation
				JOINT RightFoot
				{
					OFFSET -2.500000 -6.900000 0.000000
					CHANNELS 3 Zrotation Yrotation Xrotation
					JOINT RightToeBase
					{
						OFFSET -0.200000 -0.500000 1.950000
						CHANNELS 3 Zrotation Yrotation Xrotation
						End Site
						{
							OFFSET 0.000000 0.000000 0.000000
						}
					}
				}
			}
		}
	}
	JOINT LowerBack
	{
		OFFSET 0.000000 0.000000 0.000000
		CHANNELS 3 Zrotation Yrotation Xrotation
		JOINT Spine
		{
			OFFSET -0.087000 1.940000 -0.288900
			CHANNELS 3 Zrotation Yrotation Xrotation
			JOINT Spine1
			{
				OFFSET 0.000000 1.950000 0.060000
				CHANNELS 3 Zrotation Yrotation Xrotation
				JOINT Neck
				{
					OFFSET 0.000000 0.000000 0.000000
					CHANNELS 3 Zrotation Yrotation Xrotation
					JOINT Neck1
					{
						OFFSET 0.000000 1.600000 0.340000
						CHANNELS 3 Zrotation Yrotation Xrotation
						JOINT Head
						{
							OFFSET 0.000000 1.667000 -0.240000
							CHANNELS 3 Zrotation Yrotation Xrotation
							End Site
							{
								OFFSET 0.000000 0.000000 0.000000
							}
						}
					}
				}
				JOINT LeftShoulder
				{
					OFFSET 0.000000 0.000000 0.000000
					CHANNELS 3 Zrotation Yrotation Xrotation
					JOINT LeftArm
					{
						OFFSET 2.700000 1.550000 -0.730000
						CHANNELS 3 Zrotation Yrotation Xrotation
						JOINT LeftForeArm
						{
							OFFSET 5.450000 0.000000 0.000000
							CHANNELS 3 Zrotation Yrotation Xrotation
							JOINT LeftHand
							{
								OFFSET 3.450000 0.000000 0.000000
								CHANNELS 3 Zrotation Yrotation Xrotation
								JOINT LeftHandIndex1
								{
									OFFSET 0.750000 0.000000 0.000000
									CHANNELS 3 Zrotation Yrotation Xrotation
									End Site
									{
										OFFSET 0.000000 0.000000 0.000000
									}
								}
							}
						}
					}
				}
				JOINT RightShoulder
				{
					OFFSET 0.000000 0.000000 0.000000
					CHANNELS 3 Zrotation Yrotation Xrotation
					JOINT RightArm
					{
						OFFSET -2.700000 1.550000 -0.730000
						CHANNELS 3 Zrotation Yrotation Xrotation
						JOINT RightForeArm
						{
							OFFSET -5.450000 0.000000 0.000000
							CHANNELS 3 Zrotation Yrotation Xrotation
							JOINT RightHand
							{
								OFFSET -3.450000 0.000000 0.000000
								CHANNELS 3 Zrotation Yrotation Xrotation
								JOINT RightHandIndex1
								{
									OFFSET -0.750000 0.000000 0.000000
									CHANNELS 3 Zrotation Yrotation Xrotation
									End Site
									{
										OFFSET 0.000000 0.000000 0.000000
									}
								}
							}
						}
					}
				}
			}
		}
	}
}
MOTION
Frames: 14
Frame Time: 0.016667
-1.455540 16.190000 -1.756710 -6.293367 -24.266073 13.658455 -15.326805 12.397330 3.711954 0.403972 -5.953852 -30.709660 -9.294106 6.191278 18.142852 -1.014431 4.330265 3.305029 0.780130 0.392080 0.221900 18.284218 -10.512416 2.247538 -5.858781 1.252970 -13.839657 7.880645 -4.886141 12.336131 -0.026555 -3.777002 3.408761 0.615400 0.761760 0.236370 -3.309434 -1.558907 -6.465347 -2.517755 5.021668 1.447801 2.219249 4.972494 8.888264 -0.916436 -4.177041 -6.245203 -6.073224 6.136590 15.694780 1.081380 0.102250 -5.379520 -13.309422 6.695307 2.083053 -50.817233 7.265134 -7.843865 -73.708338 -56.484778 34.365268 -4.022721 3.850399 0.199040 0.580280 -0.542700 0.542720 15.447511 -1.681017 2.347584 38.667739 -8.490171 -7.056153 54.746453 23.128576 5.702454 1.452232 -2.225394 -0.378720 0.474600 -0.040150 -0.216390 
-1.529910 16.100470 -1.766260 -6.805135 -25.028836 13.385524 -15.333952 12.339211 3.828306 -0.052761 -6.347471 -31.936311 -8.915407 6.076935 18.692189 -1.073947 4.273515 3.295251 0.872590 0.486200 0.311350 18.288971 -10.528265 2.206031 -5.039606 1.226299 -13.596690 7.446716 -5.041512 13.988221 -0.087082 -3.804974 3.369139 0.676270 0.695330 0.228960 -3.309901 -1.529525 -6.498302 -1.869393 5.078253 2.077393 1.586069 5.204574 8.978580 -0.841327 -4.527125 -5.999646 -6.705858 6.131963 15.984792 1.175580 0.135820 -7.175230 -14.611264 6.629479 1.510234 -47.424681 6.485779 -6.410770 -80.284961 -59.441934 41.277304 -4.010209 3.843880 0.259960 0.527580 -0.482440 0.547060 16.483286 -1.468604 2.583636 35.848629 -9.578111 -6.703443 58.314706 24.986617 7.203878 1.417381 -2.257082 -0.374800 0.496630 -0.082020 -0.244000 
-1.608240 15.996480 -1.778930 -7.387051 -25.817182 12.885925 -15.350789 12.273535 3.981680 0.273438 -6.759060 -33.419333 -9.319349 6.431062 20.251817 -1.061850 4.467780 3.180844 0.949170 0.553880 0.385350 18.281979 -10.519502 2.165280 -4.321112 1.291743 -13.519503 7.419462 -5.445077 16.466963 -0.162541 -3.935480 3.289595 0.703150 0.624430 0.244840 -3.280126 -1.537574 -6.578087 -1.381791 5.015254 3.127142 1.047224 5.304976 8.851554 -0.705494 -4.819470 -5.840415 -7.292768 6.268270 16.435288 1.296050 0.396220 -8.587210 -16.468267 6.049196 1.104520 -43.797942 6.001457 -5.363143 -87.967826 -62.662321 49.710725 -4.018990 3.827977 0.316080 0.475150 -0.420520 0.549600 17.986383 -0.787670 2.848681 32.694234 -10.295389 -6.280938 60.658439 26.342600 8.375543 1.402567 -2.289833 -0.349240 0.478530 -0.118680 -0.265560 
-1.674170 15.878560 -1.790500 -7.784667 -26.473015 12.013275 -15.372346 12.184684 4.199032 1.123289 -7.301831 -35.067595 -10.608257 7.345320 22.933713 -0.957044 4.950274 2.962760 0.985620 0.598950 0.423280 18.267411 -10.479396 2.117996 -4.230879 1.508642 -13.776674 8.206968 -6.395169 20.500366 -0.270361 -4.270576 3.145873 0.700790 0.555510 0.232360 -3.239694 -1.590931 -6.734663 -0.817666 4.748074 4.794559 0.318408 5.267653 8.646428 -0.671218 -5.378172 -5.852243 -8.402456 6.366668 17.177187 1.919620 0.423110 -10.229110 -18.226223 5.037442 0.771899 -40.092465 5.426266 -4.925689 -93.727996 -64.622271 56.135756 -4.003497 3.740266 0.371490 0.402840 -0.353560 0.546280 19.564447 0.499332 3.334353 30.407242 -10.863634 -6.332367 61.352925 27.823390 9.249737 1.424952 -2.266481 -0.324660 0.478400 -0.146210 -0.269570 
-1.722850 15.758470 -1.792590 -8.639949 -27.242034 10.869501 -15.359750 12.043071 4.374400 2.586006 -7.609683 -36.105666 -12.561738 8.590671 25.556693 -0.802667 5.574610 2.694965 1.033720 0.667260 0.469780 18.281454 -10.423997 2.158469 -4.636134 2.156889 -14.566924 10.374341 -8.423869 26.828449 -0.484167 -5.109644 2.835274 0.702350 0.471710 0.210550 -3.304793 -1.517021 -6.988198 0.894037 4.276014 7.216967 -0.959982 5.156070 8.262480 -0.513220 -5.981544 -5.820075 -9.651009 6.703190 18.266374 2.465710 0.779280 -11.923070 -20.949480 3.583162 0.399149 -35.492555 5.486421 -5.015723 -99.336823 -65.464396 61.809166 -3.957546 3.646204 0.421510 0.325140 -0.278070 0.548460 21.772613 2.112792 3.810257 27.672418 -11.296434 -6.391160 61.221346 28.759668 9.633283 1.453795 -2.243567 -0.289820 0.472450 -0.193760 -0.271440 
-1.770770 15.645920 -1.794820 -9.602913 -27.851900 9.371001 -15.351093 11.931964 4.514989 4.318381 -7.776161 -36.779918 -13.932325 10.001353 28.866677 -0.625467 6.360296 2.378723 1.048280 0.669570 0.509750 18.287758 -10.283085 2.305151 -5.388960 3.144527 -15.634217 12.813893 -11.011926 33.368446 -0.769596 -6.227705 2.429271 0.667140 0.395320 0.209750 -3.354680 -1.561583 -7.350098 2.404135 3.621330 10.661861 -1.839318 4.930667 7.202768 -0.381888 -6.615664 -5.805940 -11.019040 7.001688 19.490067 2.803450 1.134260 -13.283620 -23.376283 2.503703 -0.001717 -31.814013 5.653685 -5.347811 -100.859920 -66.755297 64.532718 -3.917358 3.559169 0.483880 0.252250 -0.210840 0.534660 23.736691 3.442808 4.218040 24.290514 -11.646760 -6.277749 61.490612 30.453943 10.711033 1.479623 -2.231373 -0.263780 0.447130 -0.216160 -0.285010 
-1.821890 15.540650 -1.797680 -10.654746 -28.174792 7.730368 -15.355194 11.752222 4.656276 6.748171 -7.829669 -37.485985 -15.400768 11.959829 32.973672 -0.397014 7.444942 1.974332 0.989140 0.605910 0.488860 18.299672 -10.008177 2.553322 -6.581531 4.465263 -17.340042 15.897105 -14.507512 40.185584 -1.116708 -7.662601 1.957177 0.603650 0.362440 0.182280 -3.424127 -1.658368 -7.791759 3.874863 2.832192 14.494182 -2.626289 4.633919 5.740173 -0.239053 -7.098191 -5.872132 -12.190591 7.228291 20.974441 3.223580 1.342940 -13.836460 -25.000048 1.854867 -0.447775 -29.176969 5.422609 -5.575907 -98.921759 -68.451244 64.599645 -3.920569 3.433961 0.524900 0.206070 -0.186940 0.499280 24.900121 4.243415 4.597602 21.876416 -12.181431 -6.348553 61.454360 33.148596 12.327824 1.505594 -2.188043 -0.269350 0.447450 -0.190520 -0.294350 
-1.868500 15.451000 -1.799080 -11.630002 -28.524520 5.941700 -15.388640 11.577148 4.739065 9.274452 -7.675209 -37.791066 -16.521914 14.056880 36.959873 -0.146104 8.504939 1.597273 0.954730 0.561930 0.492520 18.293864 -9.564229 2.934364 -8.733225 6.108200 -19.954569 20.005154 -19.167397 46.887557 -1.581053 -9.332443 1.451108 0.539780 0.300990 0.133590 -3.443389 -1.946482 -8.267875 4.781601 1.902802 18.951402 -2.884205 4.176858 3.643598 -0.249434 -8.084789 -6.084627 -14.472906 8.026031 22.591187 4.141380 1.503060 -15.248360 -25.539977 2.111837 -0.770155 -29.571062 4.978435 -6.083492 -84.695827 -69.979183 53.817734 -3.814599 3.433217 0.596770 0.119740 -0.140190 0.473140 25.377770 4.766247 4.796137 20.734520 -12.020958 -6.655299 59.254050 35.975089 13.533176 1.556054 -2.105735 -0.272970 0.459560 -0.190330 -0.307420 
-1.916120 15.362030 -1.796330 -12.217176 -28.930681 4.441759 -15.469564 11.340684 4.791106 11.821770 -7.375783 -37.871249 -18.256096 16.335098 39.815006 0.089781 9.481151 1.243582 0.959120 0.571560 0.498800 18.268601 -9.012624 3.359627 -11.723037 7.624286 -23.685584 23.842732 -24.289174 52.972704 -2.060288 -10.999580 0.959623 0.515920 0.243600 0.124560 -3.384446 -2.276718 -8.674129 4.564204 1.348656 22.345471 -2.588203 3.728298 1.599905 -0.338134 -8.418452 -5.904341 -15.500977 8.509250 23.927699 5.116050 1.445590 -16.648070 -26.358078 2.281426 -1.290854 -29.353340 4.425153 -6.727282 -70.406802 -69.371956 42.801600 -3.657085 3.534694 0.641290 0.055200 -0.090740 0.457980 26.399083 4.905190 4.669509 20.528038 -11.276041 -6.876962 54.404805 37.873541 13.366596 1.584135 -2.051427 -0.248980 0.445680 -0.195370 -0.306380 
-1.953300 15.296530 -1.800770 -12.245456 -29.593322 2.122749 -15.574311 11.287900 4.738401 13.845750 -6.842803 -36.530938 -19.939682 18.385540 41.482618 0.312054 10.202128 0.994264 0.936200 0.527610 0.524680 18.198710 -8.445644 3.811462 -15.237226 8.841935 -27.434970 26.549715 -29.316225 58.849143 -2.523802 -12.484738 0.566149 0.438890 0.160800 0.126360 -3.178249 -2.860992 -9.047353 2.970749 1.189838 26.702368 -1.773021 3.296900 -0.801881 -0.234872 -8.514464 -6.217965 -16.547819 9.358068 26.615321 5.679220 2.118840 -18.786520 -26.868207 1.606076 -1.462156 -29.302644 4.262572 -7.878310 -55.913752 -66.871031 31.146246 -3.499759 3.518349 0.732900 -0.030240 -0.010440 0.426480 26.993978 5.818007 4.998025 22.600626 -10.499648 -7.958540 46.756379 40.049036 12.244269 1.634759 -1.921001 -0.228130 0.419130 -0.197270 -0.327110 
-1.976540 15.242390 -1.795610 -12.386277 -29.711800 0.223610 -15.650388 11.184229 4.704216 15.515087 -6.602799 -35.583605 -20.994957 20.188248 43.378404 0.505782 10.846881 0.775241 0.906860 0.479200 0.530760 18.166975 -7.929433 4.235596 -18.955008 9.288050 -31.107168 28.932821 -34.127444 63.262515 -2.887473 -13.660146 0.275350 0.373060 0.097430 0.126300 -3.078870 -3.329572 -9.360525 2.380737 0.759383 30.104427 -1.278080 2.616487 -3.021138 -0.189545 -8.759759 -6.504687 -18.162863 10.235134 29.602996 6.255750 2.257220 -20.075440 -27.627296 0.820950 -1.716220 -29.667883 3.468988 -8.568329 -41.694157 -62.129191 20.024051 -3.399721 3.435675 0.798510 -0.097460 0.041920 0.393100 27.909226 6.626179 5.356589 24.859544 -10.125430 -9.116988 38.082738 41.961561 10.475402 1.659527 -1.812535 -0.211070 0.392870 -0.184920 -0.341260 
-1.998440 15.206960 -1.775000 -12.708638 -29.860871 -1.537708 -15.695644 11.133085 4.679630 17.376203 -6.191751 -34.068987 -22.454927 21.901551 44.423998 0.668941 11.368735 0.603347 0.902860 0.468550 0.559580 18.151526 -7.564700 4.523375 -21.981800 9.257794 -33.535488 30.290452 -37.299825 65.870572 -3.113751 -14.298008 0.133176 0.335230 0.029680 0.116570 -3.031952 -3.685045 -9.580426 2.451847 0.149387 32.813204 -1.133981 1.903955 -4.789142 -0.089695 -9.023535 -6.787298 -20.143727 11.299206 32.856302 6.178140 2.494180 -21.693270 -28.880690 -0.119316 -1.942081 -29.802817 2.664789 -8.851024 -29.789317 -55.620528 11.558228 -3.317460 3.299893 0.864090 -0.162290 0.103860 0.369890 29.135629 7.403807 5.689308 27.214798 -9.991489 -10.475498 30.283568 43.610873 8.595266 1.665244 -1.717606 -0.198090 0.389380 -0.191860 -0.357080 
-2.027960 15.178250 -1.752850 -13.002207 -29.566634 -2.065388 -15.744243 11.010677 4.691982 18.830880 -6.085976 -33.512113 -23.480501 23.146547 45.195197 0.791299 11.725074 0.488490 0.933760 0.503020 0.608880 18.151011 -7.241201 4.775964 -24.909973 8.624243 -36.177311 31.963642 -39.590212 66.470751 -3.233806 -14.579438 0.071164 0.330830 -0.027440 0.124670 -3.005305 -3.925559 -9.754010 2.633496 -0.416938 33.532215 -1.016206 1.186953 -5.758177 -0.059598 -8.949068 -6.731069 -21.007402 11.768258 34.832781 5.398730 2.698530 -22.758360 -30.009038 -0.823042 -2.285214 -29.897215 1.005655 -8.301417 -20.916431 -47.509413 6.115702 -3.281680 3.184328 0.886800 -0.197590 0.157050 0.363060 30.315191 7.581662 5.669526 29.911875 -9.666484 -11.672400 22.769994 43.897179 6.269995 1.663125 -1.656012 -0.165780 0.377470 -0.220130 -0.363390 
-2.055280 15.159510 -1.725680 -13.132730 -29.275813 -1.935665 -15.790930 10.893307 4.721178 19.886087 -6.088120 -33.331829 -24.661807 23.939466 45.010765 0.854870 11.906481 0.434310 0.918870 0.489070 0.616400 18.151075 -6.972797 4.984188 -27.685302 7.632780 -38.348899 33.899630 -41.179361 65.684718 -3.253223 -14.605134 0.065136 0.313230 -0.042420 0.125980 -2.971786 -4.138762 -9.897739 2.646257 -0.990962 32.995042 -0.814619 0.390622 -6.549676 -0.057692 -8.843200 -6.765420 -21.672965 12.352110 36.403065 4.649260 2.913310 -22.588190 -30.894671 -1.428727 -2.360059 -30.568090 -0.360387 -7.264359 -13.761336 -38.118620 2.524931 -3.299496 3.048920 0.893580 -0.203830 0.173890 0.348860 31.367913 7.611814 5.535999 32.643192 -9.217255 -12.704067 16.175948 43.479572 4.129992 1.663855 -1.582201 -0.160120 0.377050 -0.215400 -0.366370 
